<?xml version="1.0" encoding="UTF-8" standalone="no"?>
<svg
      xmlns="http://www.w3.org/2000/svg"
      width="44"
      height="75"
   >
   <g
      id="g_clef"
     transform="matrix(1.010278,0,0,1.010278,-24.38602,-0.986803)"
   >
      <path
         fill="currentColor"
         d="M 39.708934,63.678683 C 39.317094,65.77065 41.499606,70.115061 45.890584,70.256984 C 51.19892,70.428558 54.590321,66.367906 53.010333,59.740875 L 45.086538,23.171517 C 44.143281,18.81826 44.851281,16.457097 45.354941,15.049945 C 46.698676,11.295749 50.055822,9.7473042 50.873134,10.949208 C 51.339763,11.635413 52.468042,14.844006 49.256275,20.590821 C 46.751378,25.072835 35.096985,30.950138 34.2417,41.468011 C 33.501282,50.614249 43.075689,57.369301 51.339266,54.71374 C 56.825686,52.950639 59.653965,44.62402 56.258057,40.328987 C 47.29624,28.994371 32.923702,46.341263 46.846564,51.0935 C 45.332604,49.90238 44.300646,48.980054 44.1085,47.852721 C 42.237755,36.876941 58.741182,39.774741 54.294493,50.18735 C 52.466001,54.469045 45.080341,55.297323 40.874269,51.477433 C 37.350853,48.277521 35.787387,42.113231 39.708327,37.687888 C 45.018831,31.694223 51.288782,26.31366 52.954064,18.108736 C 54.923313,8.4061491 48.493821,0.84188926 44.429027,10.385835 C 43.065093,13.588288 42.557016,16.803074 43.863006,22.963534 L 51.780549,60.311215 C 52.347386,62.985028 51.967911,66.664419 49.472374,68.355474 C 48.236187,69.193154 43.861784,69.769668 42.791575,67.770092"
      />
      <path
         fill="currentColor"
         transform="matrix(-1.08512,-2.036848e-2,2.036848e-2,-1.08512,90.68868,135.0572)"
         d="M 48.24903 64.584198 A 3.439605 3.4987047 0 1 1  41.36982,64.584198 A 3.439605 3.4987047 0 1 1  48.24903 64.584198 z"
      />
   </g>
   <g 
      id="quarter_note" 
      transform="translate(-440.95 -9.4689)"
   >
      <path 
         fill="currentColor"
         id="path11056" 
         d="m451.09 49.39c3.3958-1.82 5.2053-5.1146 4.0922-7.593-1.1873-2.6436-5.267-3.3897-9.1066-1.6654-3.8396 1.7244-5.9922 5.2694-4.8049 7.913 1.1873 2.6436 5.267 3.3897 9.1066 1.6654 0.23997-0.10777 0.48628-0.19874 0.71268-0.32007z" 
         fill-rule="evenodd"
      />
      <path 
         fill="currentColor"
         d="m454.73 43.056v-33.588" 
         stroke="currentColor"
         stroke-width="1.5"
      />
   </g>
</svg>
